<?xml version="1.0" standalone="no"?><svg xmlns="http://www.w3.org/2000/svg" viewBox="0 0 1440 320"><path fill="#ffd700" fill-opacity="1" d="M0,128L6.2,149.3C12.3,171,25,213,37,224C49.2,235,62,213,74,181.3C86.2,149,98,107,111,96C123.1,85,135,107,148,149.3C160,192,172,256,185,256C196.9,256,209,192,222,138.7C233.8,85,246,43,258,53.3C270.8,64,283,128,295,144C307.7,160,320,128,332,144C344.6,160,357,224,369,218.7C381.5,213,394,139,406,112C418.5,85,431,107,443,101.3C455.4,96,468,64,480,80C492.3,96,505,160,517,176C529.2,192,542,160,554,149.3C566.2,139,578,149,591,160C603.1,171,615,181,628,165.3C640,149,652,107,665,80C676.9,53,689,43,702,53.3C713.8,64,726,96,738,122.7C750.8,149,763,171,775,176C787.7,181,800,171,812,186.7C824.6,203,837,245,849,266.7C861.5,288,874,288,886,256C898.5,224,911,160,923,138.7C935.4,117,948,139,960,176C972.3,213,985,267,997,261.3C1009.2,256,1022,192,1034,181.3C1046.2,171,1058,213,1071,202.7C1083.1,192,1095,128,1108,138.7C1120,149,1132,235,1145,266.7C1156.9,299,1169,277,1182,277.3C1193.8,277,1206,299,1218,288C1230.8,277,1243,235,1255,213.3C1267.7,192,1280,192,1292,170.7C1304.6,149,1317,107,1329,90.7C1341.5,75,1354,85,1366,74.7C1378.5,64,1391,32,1403,42.7C1415.4,53,1428,107,1434,133.3L1440,160L1440,320L1433.8,320C1427.7,320,1415,320,1403,320C1390.8,320,1378,320,1366,320C1353.8,320,1342,320,1329,320C1316.9,320,1305,320,1292,320C1280,320,1268,320,1255,320C1243.1,320,1231,320,1218,320C1206.2,320,1194,320,1182,320C1169.2,320,1157,320,1145,320C1132.3,320,1120,320,1108,320C1095.4,320,1083,320,1071,320C1058.5,320,1046,320,1034,320C1021.5,320,1009,320,997,320C984.6,320,972,320,960,320C947.7,320,935,320,923,320C910.8,320,898,320,886,320C873.8,320,862,320,849,320C836.9,320,825,320,812,320C800,320,788,320,775,320C763.1,320,751,320,738,320C726.2,320,714,320,702,320C689.2,320,677,320,665,320C652.3,320,640,320,628,320C615.4,320,603,320,591,320C578.5,320,566,320,554,320C541.5,320,529,320,517,320C504.6,320,492,320,480,320C467.7,320,455,320,443,320C430.8,320,418,320,406,320C393.8,320,382,320,369,320C356.9,320,345,320,332,320C320,320,308,320,295,320C283.1,320,271,320,258,320C246.2,320,234,320,222,320C209.2,320,197,320,185,320C172.3,320,160,320,148,320C135.4,320,123,320,111,320C98.5,320,86,320,74,320C61.5,320,49,320,37,320C24.6,320,12,320,6,320L0,320Z"></path></svg>