<?xml version="1.0" standalone="no"?><svg xmlns="http://www.w3.org/2000/svg" viewBox="0 0 1440 320"><path fill="#e7008a" fill-opacity="1" d="M0,288L6.2,288C12.3,288,25,288,37,272C49.2,256,62,224,74,197.3C86.2,171,98,149,111,117.3C123.1,85,135,43,148,37.3C160,32,172,64,185,80C196.9,96,209,96,222,117.3C233.8,139,246,181,258,213.3C270.8,245,283,267,295,272C307.7,277,320,267,332,256C344.6,245,357,235,369,197.3C381.5,160,394,96,406,58.7C418.5,21,431,11,443,53.3C455.4,96,468,192,480,192C492.3,192,505,96,517,74.7C529.2,53,542,107,554,117.3C566.2,128,578,96,591,112C603.1,128,615,192,628,208C640,224,652,192,665,186.7C676.9,181,689,203,702,213.3C713.8,224,726,224,738,202.7C750.8,181,763,139,775,149.3C787.7,160,800,224,812,234.7C824.6,245,837,203,849,160C861.5,117,874,75,886,74.7C898.5,75,911,117,923,133.3C935.4,149,948,139,960,122.7C972.3,107,985,85,997,80C1009.2,75,1022,85,1034,106.7C1046.2,128,1058,160,1071,197.3C1083.1,235,1095,277,1108,277.3C1120,277,1132,235,1145,208C1156.9,181,1169,171,1182,176C1193.8,181,1206,203,1218,181.3C1230.8,160,1243,96,1255,96C1267.7,96,1280,160,1292,208C1304.6,256,1317,288,1329,288C1341.5,288,1354,256,1366,229.3C1378.5,203,1391,181,1403,149.3C1415.4,117,1428,75,1434,53.3L1440,32L1440,320L1433.8,320C1427.7,320,1415,320,1403,320C1390.8,320,1378,320,1366,320C1353.8,320,1342,320,1329,320C1316.9,320,1305,320,1292,320C1280,320,1268,320,1255,320C1243.1,320,1231,320,1218,320C1206.2,320,1194,320,1182,320C1169.2,320,1157,320,1145,320C1132.3,320,1120,320,1108,320C1095.4,320,1083,320,1071,320C1058.5,320,1046,320,1034,320C1021.5,320,1009,320,997,320C984.6,320,972,320,960,320C947.7,320,935,320,923,320C910.8,320,898,320,886,320C873.8,320,862,320,849,320C836.9,320,825,320,812,320C800,320,788,320,775,320C763.1,320,751,320,738,320C726.2,320,714,320,702,320C689.2,320,677,320,665,320C652.3,320,640,320,628,320C615.4,320,603,320,591,320C578.5,320,566,320,554,320C541.5,320,529,320,517,320C504.6,320,492,320,480,320C467.7,320,455,320,443,320C430.8,320,418,320,406,320C393.8,320,382,320,369,320C356.9,320,345,320,332,320C320,320,308,320,295,320C283.1,320,271,320,258,320C246.2,320,234,320,222,320C209.2,320,197,320,185,320C172.3,320,160,320,148,320C135.4,320,123,320,111,320C98.5,320,86,320,74,320C61.5,320,49,320,37,320C24.6,320,12,320,6,320L0,320Z"></path></svg>