<?xml version="1.0" standalone="no"?><svg xmlns="http://www.w3.org/2000/svg" viewBox="0 0 1440 320"><path fill="#0099ff" fill-opacity="1" d="M0,96L12,112C24,128,48,160,72,149.3C96,139,120,85,144,101.3C168,117,192,203,216,218.7C240,235,264,181,288,138.7C312,96,336,64,360,80C384,96,408,160,432,186.7C456,213,480,203,504,170.7C528,139,552,85,576,85.3C600,85,624,139,648,181.3C672,224,696,256,720,266.7C744,277,768,267,792,234.7C816,203,840,149,864,154.7C888,160,912,224,936,208C960,192,984,96,1008,58.7C1032,21,1056,43,1080,96C1104,149,1128,235,1152,245.3C1176,256,1200,192,1224,138.7C1248,85,1272,43,1296,26.7C1320,11,1344,21,1368,26.7C1392,32,1416,32,1428,32L1440,32L1440,320L1428,320C1416,320,1392,320,1368,320C1344,320,1320,320,1296,320C1272,320,1248,320,1224,320C1200,320,1176,320,1152,320C1128,320,1104,320,1080,320C1056,320,1032,320,1008,320C984,320,960,320,936,320C912,320,888,320,864,320C840,320,816,320,792,320C768,320,744,320,720,320C696,320,672,320,648,320C624,320,600,320,576,320C552,320,528,320,504,320C480,320,456,320,432,320C408,320,384,320,360,320C336,320,312,320,288,320C264,320,240,320,216,320C192,320,168,320,144,320C120,320,96,320,72,320C48,320,24,320,12,320L0,320Z"></path></svg>