<?xml version="1.0" standalone="no"?><svg xmlns="http://www.w3.org/2000/svg" viewBox="0 0 1440 320"><path fill="#00cba9" fill-opacity="1" d="M0,0L6.7,21.3C13.3,43,27,85,40,122.7C53.3,160,67,192,80,202.7C93.3,213,107,203,120,170.7C133.3,139,147,85,160,64C173.3,43,187,53,200,53.3C213.3,53,227,43,240,74.7C253.3,107,267,181,280,218.7C293.3,256,307,256,320,261.3C333.3,267,347,277,360,240C373.3,203,387,117,400,96C413.3,75,427,117,440,117.3C453.3,117,467,75,480,101.3C493.3,128,507,224,520,250.7C533.3,277,547,235,560,197.3C573.3,160,587,128,600,144C613.3,160,627,224,640,250.7C653.3,277,667,267,680,250.7C693.3,235,707,213,720,208C733.3,203,747,213,760,181.3C773.3,149,787,75,800,69.3C813.3,64,827,128,840,181.3C853.3,235,867,277,880,282.7C893.3,288,907,256,920,218.7C933.3,181,947,139,960,133.3C973.3,128,987,160,1000,181.3C1013.3,203,1027,213,1040,202.7C1053.3,192,1067,160,1080,122.7C1093.3,85,1107,43,1120,69.3C1133.3,96,1147,192,1160,213.3C1173.3,235,1187,181,1200,144C1213.3,107,1227,85,1240,117.3C1253.3,149,1267,235,1280,266.7C1293.3,299,1307,277,1320,245.3C1333.3,213,1347,171,1360,128C1373.3,85,1387,43,1400,64C1413.3,85,1427,171,1433,213.3L1440,256L1440,320L1433.3,320C1426.7,320,1413,320,1400,320C1386.7,320,1373,320,1360,320C1346.7,320,1333,320,1320,320C1306.7,320,1293,320,1280,320C1266.7,320,1253,320,1240,320C1226.7,320,1213,320,1200,320C1186.7,320,1173,320,1160,320C1146.7,320,1133,320,1120,320C1106.7,320,1093,320,1080,320C1066.7,320,1053,320,1040,320C1026.7,320,1013,320,1000,320C986.7,320,973,320,960,320C946.7,320,933,320,920,320C906.7,320,893,320,880,320C866.7,320,853,320,840,320C826.7,320,813,320,800,320C786.7,320,773,320,760,320C746.7,320,733,320,720,320C706.7,320,693,320,680,320C666.7,320,653,320,640,320C626.7,320,613,320,600,320C586.7,320,573,320,560,320C546.7,320,533,320,520,320C506.7,320,493,320,480,320C466.7,320,453,320,440,320C426.7,320,413,320,400,320C386.7,320,373,320,360,320C346.7,320,333,320,320,320C306.7,320,293,320,280,320C266.7,320,253,320,240,320C226.7,320,213,320,200,320C186.7,320,173,320,160,320C146.7,320,133,320,120,320C106.7,320,93,320,80,320C66.7,320,53,320,40,320C26.7,320,13,320,7,320L0,320Z"></path></svg>